<?xml version="1.0" encoding="UTF-8" standalone="no"?>
<svg
   xmlns:dc="http://purl.org/dc/elements/1.1/"
   xmlns:cc="http://creativecommons.org/ns#"
   xmlns:rdf="http://www.w3.org/1999/02/22-rdf-syntax-ns#"
   xmlns:svg="http://www.w3.org/2000/svg"
   xmlns="http://www.w3.org/2000/svg"
   xmlns:sodipodi="http://sodipodi.sourceforge.net/DTD/sodipodi-0.dtd"
   xmlns:inkscape="http://www.inkscape.org/namespaces/inkscape"
   viewBox="0 0 448 512"
   version="1.1"
   id="svg4"
   sodipodi:docname="bag.svg"
   inkscape:version="0.92.5 (2060ec1f9f, 2020-04-08)">
  <metadata
     id="metadata10">
    <rdf:RDF>
      <cc:Work
         rdf:about="">
        <dc:format>image/svg+xml</dc:format>
        <dc:type
           rdf:resource="http://purl.org/dc/dcmitype/StillImage" />
      </cc:Work>
    </rdf:RDF>
  </metadata>
  <defs
     id="defs8" />
  <sodipodi:namedview
     pagecolor="#ffffff"
     bordercolor="#666666"
     borderopacity="1"
     objecttolerance="10"
     gridtolerance="10"
     guidetolerance="10"
     inkscape:pageopacity="0"
     inkscape:pageshadow="2"
     inkscape:window-width="987"
     inkscape:window-height="930"
     id="namedview6"
     showgrid="false"
     inkscape:zoom="0.4609375"
     inkscape:cx="226.16949"
     inkscape:cy="256"
     inkscape:window-x="677"
     inkscape:window-y="255"
     inkscape:window-maximized="0"
     inkscape:current-layer="svg4" />
  <!--!Font Awesome Free 6.5.2 by @fontawesome - https://fontawesome.com License - https://fontawesome.com/license/free Copyright 2024 Fonticons, Inc.-->
  <path
     d="M160 112c0-35.3 28.7-64 64-64s64 28.7 64 64v48H160V112zm-48 48H48c-26.5 0-48 21.5-48 48V416c0 53 43 96 96 96H352c53 0 96-43 96-96V208c0-26.5-21.5-48-48-48H336V112C336 50.1 285.9 0 224 0S112 50.1 112 112v48zm24 48a24 24 0 1 1 0 48 24 24 0 1 1 0-48zm152 24a24 24 0 1 1 48 0 24 24 0 1 1 -48 0z"
     id="path2"
     style="fill:#2c50fb;fill-opacity:1" />
</svg>
