<?xml version="1.0" encoding="UTF-8" standalone="no"?>
<svg
   xmlns:dc="http://purl.org/dc/elements/1.1/"
   xmlns:cc="http://creativecommons.org/ns#"
   xmlns:rdf="http://www.w3.org/1999/02/22-rdf-syntax-ns#"
   xmlns:svg="http://www.w3.org/2000/svg"
   xmlns="http://www.w3.org/2000/svg"
   xmlns:sodipodi="http://sodipodi.sourceforge.net/DTD/sodipodi-0.dtd"
   xmlns:inkscape="http://www.inkscape.org/namespaces/inkscape"
   height="533.33331"
   width="533.33331"
   viewBox="-204.79995 -341.33325 788.85904 1365.3329"
   version="1.1"
   id="svg6"
   sodipodi:docname="Facebook-logo.svg"
   inkscape:version="0.92.5 (2060ec1f9f, 2020-04-08)">
  <metadata
     id="metadata12">
    <rdf:RDF>
      <cc:Work
         rdf:about="">
        <dc:format>image/svg+xml</dc:format>
        <dc:type
           rdf:resource="http://purl.org/dc/dcmitype/StillImage" />
        <dc:title></dc:title>
      </cc:Work>
    </rdf:RDF>
  </metadata>
  <defs
     id="defs10" />
  <sodipodi:namedview
     pagecolor="#ffffff"
     bordercolor="#666666"
     borderopacity="1"
     objecttolerance="10"
     gridtolerance="10"
     guidetolerance="10"
     inkscape:pageopacity="0"
     inkscape:pageshadow="2"
     inkscape:window-width="1285"
     inkscape:window-height="810"
     id="namedview8"
     showgrid="false"
     fit-margin-top="0"
     fit-margin-left="0"
     fit-margin-right="0"
     fit-margin-bottom="0"
     showguides="false"
     inkscape:zoom="0.57833333"
     inkscape:cx="507.71249"
     inkscape:cy="50.599635"
     inkscape:window-x="1726"
     inkscape:window-y="200"
     inkscape:window-maximized="0"
     inkscape:current-layer="svg6" />
  <path
     d="m 874.97385,343.54701 c 0,-377.027004 -305.64,-682.667 -682.666,-682.667 -377.027,0 -682.667,305.639996 -682.667,682.667 0,340.738 249.641,623.16 575.999992,674.37299 V 540.88001 H -87.692153 v -197.333 H 85.640842 v -150.4 c 0,-171.094004 101.917008,-265.600004 257.852998,-265.600004 74.69,0 152.81401,13.333 152.81401,13.333 V 108.88001 h -86.08301 c -84.804,0 -111.25,52.623 -111.25,106.61 v 128.057 h 189.33301 l -30.26701,197.333 h -159.067 V 1017.92 C 625.33285,966.70701 874.97385,684.28501 874.97385,343.54701"
     id="path2"
     inkscape:connector-curvature="0"
     style="fill:#1877f2" />
  <path
     d="m 458.04084,540.88001 30.26701,-197.333 H 298.97384 v -128.058 c 0,-53.986 26.447,-106.609 111.251,-106.609 h 86.08301 V -59.119994 c 0,0 -78.12401,-13.333 -152.81401,-13.333 -155.93599,0 -257.852998,94.506 -257.852998,265.600004 v 150.4 H -87.692153 v 197.333 H 85.640842 V 1017.92 a 687.805,687.805 0 0 0 106.667008,8.293 c 36.288,0 71.90999,-2.84 106.66599,-8.293 V 540.88001 h 159.067"
     id="path4"
     inkscape:connector-curvature="0"
     style="fill:#ffffff" />
</svg>
