<?xml version="1.0" encoding="UTF-8" standalone="no"?>
<svg
   xmlns:dc="http://purl.org/dc/elements/1.1/"
   xmlns:cc="http://creativecommons.org/ns#"
   xmlns:rdf="http://www.w3.org/1999/02/22-rdf-syntax-ns#"
   xmlns:svg="http://www.w3.org/2000/svg"
   xmlns="http://www.w3.org/2000/svg"
   xmlns:sodipodi="http://sodipodi.sourceforge.net/DTD/sodipodi-0.dtd"
   xmlns:inkscape="http://www.inkscape.org/namespaces/inkscape"
   height="533.33429"
   width="471.70969"
   viewBox="-4.15362 -7.827075 14.15052 31.308356"
   version="1.1"
   id="svg14"
   sodipodi:docname="tiktok-logo.svg"
   inkscape:version="0.92.5 (2060ec1f9f, 2020-04-08)">
  <metadata
     id="metadata20">
    <rdf:RDF>
      <cc:Work
         rdf:about="">
        <dc:format>image/svg+xml</dc:format>
        <dc:type
           rdf:resource="http://purl.org/dc/dcmitype/StillImage" />
        <dc:title></dc:title>
      </cc:Work>
    </rdf:RDF>
  </metadata>
  <defs
     id="defs18" />
  <sodipodi:namedview
     pagecolor="#ffffff"
     bordercolor="#666666"
     borderopacity="1"
     objecttolerance="10"
     gridtolerance="10"
     guidetolerance="10"
     inkscape:pageopacity="0"
     inkscape:pageshadow="2"
     inkscape:window-width="1304"
     inkscape:window-height="807"
     id="namedview16"
     showgrid="false"
     fit-margin-top="0"
     fit-margin-left="0"
     fit-margin-right="0"
     fit-margin-bottom="0"
     inkscape:zoom="0.28916667"
     inkscape:cx="235.85487"
     inkscape:cy="266.66765"
     inkscape:window-x="1450"
     inkscape:window-y="97"
     inkscape:window-maximized="0"
     inkscape:current-layer="svg14" />
  <g
     id="g12"
     style="fill:none"
     transform="translate(-10.923758,-7.8270766)">
    <path
       d="M 10.7908,12.33 V 11.11 A 9.003,9.003 0 0 0 9.5108,11 C 5.36,10.9912 1.685,13.681 0.4387,17.6403 -0.8078,21.5995 0.6635,25.9093 4.0707,28.28 1.5185,25.5485 0.8098,21.572 2.2613,18.127 3.7127,14.682 7.0533,12.4115 10.7908,12.33 Z"
       id="path2"
       inkscape:connector-curvature="0"
       style="fill:#25f4ee" />
    <path
       d="m 11.0208,26.15 c 2.3207,-0.0031 4.2284,-1.8315 4.33,-4.15 V 1.31 h 3.78 A 7.09,7.09 0 0 1 19.0208,0 h -5.17 v 20.67 c -0.086,2.3303 -1.9981,4.1762 -4.33,4.18 a 4.3996,4.3996 0 0 1 -2,-0.5 4.34,4.34 0 0 0 3.5,1.8 z M 26.1908,8.33 V 7.18 a 7.06,7.06 0 0 1 -3.91,-1.18 7.17,7.17 0 0 0 3.91,2.33 z"
       id="path4"
       inkscape:connector-curvature="0"
       style="fill:#25f4ee" />
    <path
       d="m 22.2808,6 a 7.12,7.12 0 0 1 -1.77,-4.7 h -1.38 a 7.16,7.16 0 0 0 3.15,4.7 z m -12.77,10.17 c -1.9916,0.0102 -3.7206,1.3746 -4.1936,3.3092 -0.473,1.9346 0.4314,3.9428 2.1936,4.8708 a 4.33,4.33 0 0 1 3.51,-6.87 c 0.434,0.0054 0.865,0.0728 1.28,0.2 v -5.26 a 9.0809,9.0809 0 0 0 -1.28,-0.1 h -0.23 v 4 a 4.45,4.45 0 0 0 -1.28,-0.15 z"
       id="path6"
       inkscape:connector-curvature="0"
       style="fill:#fe2c55" />
    <path
       d="m 26.1908,8.33 v 4 A 12.2701,12.2701 0 0 1 19.0208,10 V 20.51 C 19.0098,25.7544 14.7552,30 9.5108,30 a 9.4097,9.4097 0 0 1 -5.44,-1.72 c 2.6562,2.8568 6.79,3.7972 10.4207,2.3706 3.6306,-1.4267 6.0184,-4.9297 6.0193,-8.8306 V 11.34 a 12.29,12.29 0 0 0 7.18,2.3 V 8.49 a 7.3297,7.3297 0 0 1 -1.5,-0.16 z"
       id="path8"
       inkscape:connector-curvature="0"
       style="fill:#fe2c55" />
    <path
       d="M 19.0208,20.51 V 10 a 12.27,12.27 0 0 0 7.18,2.3 v -4 a 7.17,7.17 0 0 1 -3.92,-2.3 7.16,7.16 0 0 1 -3.15,-4.7 h -3.78 V 22 c -0.0756,1.8468 -1.3126,3.443 -3.082,3.9772 C 10.4993,26.5114 8.5858,25.8664 7.5008,24.37 5.7386,23.442 4.8342,21.4338 5.3072,19.4992 5.7802,17.5646 7.5092,16.2002 9.5008,16.19 a 4.451,4.451 0 0 1 1.28,0.2 v -4 c -3.7585,0.0637 -7.1243,2.342 -8.5799,5.8077 -1.4555,3.4657 -0.726,7.464 1.8599,10.1923 a 9.41,9.41 0 0 0 5.45,1.61 c 5.2444,0 9.499,-4.2456 9.51,-9.49 z"
       id="path10"
       inkscape:connector-curvature="0"
       style="fill:#000000" />
  </g>
</svg>
