<?xml version="1.0" encoding="UTF-8" standalone="no"?>
<!-- Generator: Adobe Illustrator 21.0.0, SVG Export Plug-In . SVG Version: 6.00 Build 0)  -->

<svg
   xmlns:dc="http://purl.org/dc/elements/1.1/"
   xmlns:cc="http://creativecommons.org/ns#"
   xmlns:rdf="http://www.w3.org/1999/02/22-rdf-syntax-ns#"
   xmlns:svg="http://www.w3.org/2000/svg"
   xmlns="http://www.w3.org/2000/svg"
   xmlns:sodipodi="http://sodipodi.sourceforge.net/DTD/sodipodi-0.dtd"
   xmlns:inkscape="http://www.inkscape.org/namespaces/inkscape"
   version="1.1"
   id="Layer_1"
   x="0px"
   y="0px"
   viewBox="0 0 176 124"
   xml:space="preserve"
   sodipodi:docname="youtube-logo.svg"
   width="176"
   height="124"
   inkscape:version="0.92.5 (2060ec1f9f, 2020-04-08)"><metadata
   id="metadata15"><rdf:RDF><cc:Work
       rdf:about=""><dc:format>image/svg+xml</dc:format><dc:type
         rdf:resource="http://purl.org/dc/dcmitype/StillImage" /><dc:title></dc:title></cc:Work></rdf:RDF></metadata><defs
   id="defs13" /><sodipodi:namedview
   pagecolor="#ffffff"
   bordercolor="#666666"
   borderopacity="1"
   objecttolerance="10"
   gridtolerance="10"
   guidetolerance="10"
   inkscape:pageopacity="0"
   inkscape:pageshadow="2"
   inkscape:window-width="1271"
   inkscape:window-height="830"
   id="namedview11"
   showgrid="false"
   fit-margin-top="0"
   fit-margin-left="0"
   fit-margin-right="0"
   fit-margin-bottom="0"
   inkscape:zoom="1.2291667"
   inkscape:cx="88"
   inkscape:cy="62"
   inkscape:window-x="1558"
   inkscape:window-y="202"
   inkscape:window-maximized="0"
   inkscape:current-layer="Layer_1" />
<style
   type="text/css"
   id="style2">
	.st0{fill:#EE3124;}
	.st1{fill:#FFFFFF;}
</style>
<g
   id="g8"
   transform="translate(-8,-34)">
	<path
   class="st0"
   d="m 180.3,53.4 c -2,-7.6 -8,-13.6 -15.6,-15.7 C 151,34 96,34 96,34 c 0,0 -55,0 -68.8,3.7 -7.6,2 -13.5,8 -15.6,15.7 C 8,67.2 8,96 8,96 c 0,0 0,28.8 3.7,42.6 2,7.6 8,13.6 15.6,15.7 C 41,158 96,158 96,158 c 0,0 55,0 68.8,-3.7 7.6,-2 13.5,-8 15.6,-15.7 C 184,124.8 184,96 184,96 c 0,0 0,-28.8 -3.7,-42.6 z"
   id="path4"
   inkscape:connector-curvature="0"
   style="fill:#ee3124" />
	<polygon
   class="st1"
   points="78,122.2 78,69.8 124,96 "
   id="polygon6"
   style="fill:#ffffff" />
</g>
</svg>